<svg width="81" height="76" xmlns="http://www.w3.org/2000/svg" xmlns:xlink="http://www.w3.org/1999/xlink" overflow="hidden"><defs><clipPath id="clip0"><rect x="0" y="0" width="81" height="76"/></clipPath><linearGradient x1="39.1951" y1="43.5374" x2="27.9622" y2="4.42058" gradientUnits="userSpaceOnUse" spreadMethod="pad" id="fill1"><stop offset="0" stop-color="#B51F24" stop-opacity="1"/><stop offset="1" stop-color="#F37679" stop-opacity="1"/></linearGradient><linearGradient x1="72.9383" y1="76.1604" x2="44.279" y2="23.4894" gradientUnits="userSpaceOnUse" spreadMethod="pad" id="fill2"><stop offset="0" stop-color="#E76C24" stop-opacity="1"/><stop offset="0.2" stop-color="#EE9219" stop-opacity="1"/><stop offset="0.44" stop-color="#F5B60E" stop-opacity="1"/><stop offset="0.65" stop-color="#FAD106" stop-opacity="1"/><stop offset="0.85" stop-color="#FDE002" stop-opacity="1"/><stop offset="1" stop-color="#FEE600" stop-opacity="1"/></linearGradient><linearGradient x1="43.0152" y1="48.3261" x2="8.16235" y2="72.3378" gradientUnits="userSpaceOnUse" spreadMethod="pad" id="fill3"><stop offset="0" stop-color="#676767" stop-opacity="1"/><stop offset="1" stop-color="#C0BFBF" stop-opacity="1"/></linearGradient></defs><g clip-path="url(#clip0)"><path d="M44.7045 15.4342C35.0722 13.9615 25.0064 27.5392 22.223 45.7594 21.6156 49.6789 21.396 53.6486 21.5676 57.6112 18.3534 50.9477 17.1288 41.0777 18.7581 30.4349 21.5415 12.2147 31.6073-1.36299 41.2396 0.109666 48.6969 1.2481 53.705 11.0763 54.2951 23.9098 52.0078 19.1654 48.71 16.0452 44.7045 15.4342Z" fill="url(#fill1)" fill-rule="nonzero" transform="matrix(1.00047 0 0 1 0 0.030773)"/><path d="M63.5305 66.1442C70.2097 59.0499 64.7447 43.0569 51.3289 30.4219 48.4486 27.6959 45.3061 25.2611 41.9472 23.1526 49.2583 24.291 58.0733 28.897 65.9092 36.2707 79.3277 48.9032 84.7927 64.8961 78.1135 71.9905 72.9435 77.4738 62.0083 76.0272 51.1096 69.2306 56.3135 70.04 60.7523 69.0948 63.5305 66.1442Z" fill="url(#fill2)" fill-rule="nonzero" transform="matrix(1.00047 0 0 1 0 0.030773)"/><path d="M12.421 56.7704C15.677 65.9536 32.3985 68.4028 49.7596 62.2537 53.5003 60.9382 57.102 59.2562 60.5121 57.2326 56.1672 63.2015 48.0441 68.9329 37.9026 72.5388 20.531 78.701 3.80959 76.2518 0.563996 67.0555-1.95832 59.9455 4.33442 50.885 15.3663 44.2972 12.2539 48.5663 11.0632 52.9504 12.421 56.7704Z" fill="url(#fill3)" fill-rule="nonzero" transform="matrix(1.00047 0 0 1 0 0.030773)"/></g></svg>